<svg xmlns="http://www.w3.org/2000/svg" width="1923" height="191.327" viewBox="0 0 1923 191.327"><g transform="translate(5 -3774.92)"><path d="M1402,1321.5h16s2,4.838,5,0,8,0,8,0,4,14.514,8,0,8-21.771,8-21.771h10V1321.5c0,5.443,4,14.514,9,0s0-21.771,0-21.771-4,9.676,9,0,17-9.676,22-16.933,9,0,9,0l11,16.933,21,21.771s2,9.676,5,9.676h11c4,0,8-7.257,11-9.676s7,0,7,0,2,4.838,6,0,10,0,10,0,0,12.1,7,0,10-21.771,14-21.771h11s4-19.352,7-16.933a4.849,4.849,0,0,0,6,0h16s5-7.257,8,0,3-7.257,9,0,14-9.676,20,0,9,19.352,17,16.933,7,0,13,0,5-7.257,11,0,9,9.676,15,9.676,11-2.419,17,0,6,0,16,0,13-12.095,18-9.676,11-2.419,15,0,8-2.419,13,0,1-4.838,11,0,12,9.676,17,9.676,5-2.419,13,0,10,9.676,20,0,11-7.257,16-9.676,8,7.257,15,0,13,0,13,0,6-19.352,0-16.933-13,0-13,0l13-16.933h5V1282.8s2,19.352,6,16.933a6.151,6.151,0,0,1,7,0l4,9.676s0,16.933,4,12.095,9,0,9,0v-21.771l10-16.933h7s-2,9.676,0,16.933,0,7.257,0,9.676,4,9.676,10,12.095,5,0,13,0,6,2.419,18,0,7,14.514,20,0,4-16.932,20-21.771,16,4.838,25,0,8,2.419,22,0,12-2.419,28,0,24,9.676,41,9.676h39c7,0,25-9.676,25-9.676V1282.8s1,9.676,5,0,6-43.542,10-16.933,4,33.866,4,33.866v9.676s2,9.676,11,12.095,9-4.838,19,0,17-4.838,26,0,13,12.1,21,0,8-21.771,15-21.771,7-2.419,13,0,15,9.676,15,9.676l13,12.095s0,12.1,6,9.676,3-9.676,10-9.676,5,4.838,11,0a100.856,100.856,0,0,0,12-12.095s7,9.676,10,12.095,2,7.257,8,0,16-12.095,16-12.095,2,16.933,5,12.095,4,0,7,0h7c6,0,10,4.838,15,0s3-12.095,9-12.095c3.324,0,7.262-2.969,10.4-5.891a44.788,44.788,0,0,0,3.6-3.785s-11.192-19.352-3.6-16.933,13.6-4.838,17.6,0,7,9.676,8,16.933,10,21.771,10,21.771h7s-2-9.676,0-12.095,3-6.944,8-5.891,6-3.472,9,0-8,1.053,6,5.891,17,0,20,0,1-7.257,7-9.676,9,4.838,14,0,9,2.731,13,3.785,1,3.472,11,5.891,13,0,20,0,6-6.944,13-5.891,8,1.366,12,0,5-1.053,11,0,7,5.891,15,5.891,8-4.838,16,0,9-4.838,17,0,12-2.107,19-5.891,11-3.785,18-3.785,9,7.257,16,9.676-3,12.095,16,12.095h26c7,0,14,2.419,18,0s9-12.095,9-12.095-1-4.526-5-5.891-5-1.366-9-3.785,5-33.866,5-33.866,6,7.257,9,0,6-7.257,6,0v33.866h5l4,9.676s4,16.933,0,21.771-15,0-15,0,17-7.257,21,0,6-16.933,11,0,0-15.64,0-15.64,8,15.64,9,5.964,7,0,7,0,5-14.514,8-12.095,3,12.095,9,12.095,8-4.838,13,0,6,0,12,0,4-7.256,11-12.095,7-7.257,13-9.676,19,9.676,19,9.676v21.771s-4.667,4.838,7.333,0,12.667,9.447,12.667,9.447v-9.447l-5-9.676v-12.1c0-3.023,2-7.257,9-9.676s9-4.526,14,3.785,3,17.986,10,17.986,29-12.095,29-12.095-5-2.419,7,0,15,9.676,23,12.095,7,9.676,17,9.676,7,9.676,18,0,9-26.609,15-21.771,8,2.419,14,12.095,1,26.609,12,29.028,16,12.095,23,12.095h11l7-12.095,12-19.352a8.171,8.171,0,0,0,8,0c4-2.419,10,0,10,0a45.148,45.148,0,0,0,6-9.676c2-4.838,4-12.095,4-12.095s1-9.676,7,0,12-4.838,12,12.095v29.028h0c3,29.028,1,41.123,7,31.447a94.41,94.41,0,0,0,9-19.352s3-9.676,7-12.095a6.151,6.151,0,0,1,7,0h5V1447.2H1402Z" transform="translate(-1407 2519.047)" fill="#1a1a1a"/></g></svg>