<svg xmlns="http://www.w3.org/2000/svg" width="126" height="37" viewBox="0 0 126 37">
  <g id="Group_1265" data-name="Group 1265" transform="translate(-1463 -77)">
    <rect id="Rectangle_95" data-name="Rectangle 95" width="126" height="37" transform="translate(1463 77)" fill="#ffa200"/>
    <path id="Path_4442" data-name="Path 4442" d="M9.7,21.182H8.148q-7.742,0-7.742-4.5V16.51h5.32Q5.863,18.3,8.9,18.3h.153a11.619,11.619,0,0,0,1.62-.094,2.764,2.764,0,0,0,.955-.273,1.1,1.1,0,0,0,.418-.375.9.9,0,0,0,.111-.452V17.09a.859.859,0,0,0-.179-.571,1.7,1.7,0,0,0-.853-.375,10.048,10.048,0,0,0-1.952-.2l-2.353-.068Q.594,15.708.594,12.059v-.153a3.63,3.63,0,0,1,.188-1.2,2.909,2.909,0,0,1,.682-1.049,3.9,3.9,0,0,1,1.3-.853,9.35,9.35,0,0,1,2.106-.554,18.971,18.971,0,0,1,3.027-.213H9.409q7.707,0,7.707,4.007v.136H11.848q-.153-1.347-3.069-1.347H8.608a8.944,8.944,0,0,0-1.842.145,1.639,1.639,0,0,0-.8.324.7.7,0,0,0-.153.469v.017a.663.663,0,0,0,.179.477,1.75,1.75,0,0,0,.81.333,8.963,8.963,0,0,0,1.773.162l2.285.051a11.568,11.568,0,0,1,5.15,1,3.024,3.024,0,0,1,1.552,2.822v.239a4.432,4.432,0,0,1-.171,1.27,3.192,3.192,0,0,1-.682,1.16,4.086,4.086,0,0,1-1.356.989,9.01,9.01,0,0,1-2.285.648A20.145,20.145,0,0,1,9.7,21.182Zm8.952-.239V8.257h4.843v4.485h7.929V8.257h4.826V20.943H31.424V16.118H23.494v4.826ZM46.719,8.018h.767a18.908,18.908,0,0,1,3.078.23,11.966,11.966,0,0,1,2.336.6,6.751,6.751,0,0,1,1.654.9,5.66,5.66,0,0,1,1.117,1.083,4.876,4.876,0,0,1,.657,1.194,5.6,5.6,0,0,1,.324,1.177,7.714,7.714,0,0,1,.077,1.108v.512a7.714,7.714,0,0,1-.077,1.108,5.762,5.762,0,0,1-.324,1.185,5.159,5.159,0,0,1-.648,1.211,5.4,5.4,0,0,1-1.117,1.1,7,7,0,0,1-1.654.921,11.339,11.339,0,0,1-2.328.605,19.025,19.025,0,0,1-3.095.23h-.767a19.025,19.025,0,0,1-3.095-.23,11.533,11.533,0,0,1-2.336-.605,6.954,6.954,0,0,1-1.663-.921,5.4,5.4,0,0,1-1.117-1.1,5.158,5.158,0,0,1-.648-1.211,5.761,5.761,0,0,1-.324-1.185,7.713,7.713,0,0,1-.077-1.108V14.31a7.713,7.713,0,0,1,.077-1.108,5.6,5.6,0,0,1,.324-1.177,5.044,5.044,0,0,1,.648-1.194,5.363,5.363,0,0,1,1.117-1.083,6.918,6.918,0,0,1,1.663-.9,11.966,11.966,0,0,1,2.336-.6A19.026,19.026,0,0,1,46.719,8.018Zm5,6.65V14.43a2.675,2.675,0,0,0-.2-1.049,2.852,2.852,0,0,0-.691-.946,3.453,3.453,0,0,0-1.441-.733,8.389,8.389,0,0,0-2.285-.273,8.538,8.538,0,0,0-2.319.273,3.379,3.379,0,0,0-1.432.733,2.59,2.59,0,0,0-.87,2v.2a2.8,2.8,0,0,0,.2,1.066,3.1,3.1,0,0,0,.682.989,3.339,3.339,0,0,0,1.441.776,8.013,8.013,0,0,0,2.293.29,8.241,8.241,0,0,0,2.293-.281,3.331,3.331,0,0,0,1.441-.759,3.01,3.01,0,0,0,.682-.98A2.8,2.8,0,0,0,51.715,14.668Zm16.8,2.3H62.782v3.973H57.939V8.257H68.512q6.019,0,6.019,4.195v.273Q74.531,16.97,68.512,16.97Zm-5.729-5.542V13.8h5.15q1.6,0,1.6-1.16v-.051q0-1.16-1.6-1.16Z" transform="translate(1488.969 80.612)" fill="#1a1a1a"/>
  </g>
</svg>
