<svg xmlns="http://www.w3.org/2000/svg" xmlns:xlink="http://www.w3.org/1999/xlink" width="17" height="13" viewBox="0 0 17 13">
  <defs>
    <clipPath id="clip-path">
      <rect id="Rectangle_145" data-name="Rectangle 145" width="17" height="13" transform="translate(-0.55 -0.217)" fill="#fff"/>
    </clipPath>
  </defs>
  <g id="discord-color-seeklogo.com-2" transform="translate(0.55 0.217)" clip-path="url(#clip-path)">
    <path id="Path_39" data-name="Path 39" d="M13.622,1.428A13.269,13.269,0,0,0,10.346.413a.05.05,0,0,0-.053.025,9.243,9.243,0,0,0-.408.838,12.25,12.25,0,0,0-3.679,0A8.478,8.478,0,0,0,5.793.437.052.052,0,0,0,5.741.413,13.232,13.232,0,0,0,2.465,1.428a.047.047,0,0,0-.022.019A13.58,13.58,0,0,0,.066,10.606a.055.055,0,0,0,.021.038,13.344,13.344,0,0,0,4.018,2.031.052.052,0,0,0,.056-.019,9.537,9.537,0,0,0,.822-1.337.051.051,0,0,0-.028-.071,8.787,8.787,0,0,1-1.255-.6.052.052,0,0,1-.005-.086c.084-.063.169-.129.249-.2A.05.05,0,0,1,4,10.362a9.516,9.516,0,0,0,8.087,0,.05.05,0,0,1,.053.006c.081.066.165.133.25.2a.052.052,0,0,1,0,.086,8.246,8.246,0,0,1-1.256.6.051.051,0,0,0-.027.072,10.708,10.708,0,0,0,.821,1.336.051.051,0,0,0,.056.019A13.3,13.3,0,0,0,16,10.643a.052.052,0,0,0,.021-.037,13.491,13.491,0,0,0-2.379-9.159A.041.041,0,0,0,13.622,1.428ZM5.377,8.778A1.547,1.547,0,0,1,3.931,7.156,1.538,1.538,0,0,1,5.377,5.534,1.53,1.53,0,0,1,6.823,7.156,1.538,1.538,0,0,1,5.377,8.778Zm5.347,0A1.547,1.547,0,0,1,9.278,7.156a1.538,1.538,0,0,1,1.446-1.622A1.53,1.53,0,0,1,12.17,7.156,1.534,1.534,0,0,1,10.724,8.778Z" transform="translate(-0.095 -0.268)" fill="#fff"/>
  </g>
</svg>
