<svg xmlns="http://www.w3.org/2000/svg" xmlns:xlink="http://www.w3.org/1999/xlink" width="108.449" height="67.94" viewBox="0 0 108.449 67.94">
  <defs>
    <clipPath id="clip-path">
      <rect id="Rectangle_2" data-name="Rectangle 2" width="103.69" height="59.128" fill="#221f1d"/>
    </clipPath>
  </defs>
  <g id="Group_950" data-name="Group 950" transform="matrix(0.996, 0.087, -0.087, 0.996, 5.153, 0)">
    <g id="Group_4" data-name="Group 4" clip-path="url(#clip-path)">
      <path id="Path_17" data-name="Path 17" d="M213.685,116.1c-.188-.648-.336-1.308-.515-1.958-1.411-5.131-3.42-10.053-5.28-15.026-.336-.9-.68-1.792-1.015-2.676l-.8.184c.373-1.633,3.833-7.568,4.63-8.135a4.307,4.307,0,0,1,.241-.941q1.1-1.941,2.243-3.855a21.2,21.2,0,0,0,2.675-5.582,1.229,1.229,0,0,0-.074-.939,4.688,4.688,0,0,0-3.5-2.042c-.578,0-1.312-.14-1.635.612-1.028,2.395-2.037,4.8-3.071,7.19-.338.782-.73,1.541-1.174,2.47-.758-1.385-1.419-2.609-2.1-3.825a30.954,30.954,0,0,0-2.366-4.106,6.263,6.263,0,0,0-5.613-2.684,1.424,1.424,0,0,0-1.341.749,1.272,1.272,0,0,0,.326,1.417c1.17,1.516,2.31,3.054,3.482,4.569,1.379,1.783,2.751,3.572,4.182,5.312.666.811,1.465,1.512,2.212,2.271-.824.575-.349,1.311-.3,1.881-.2.205-.429.332-.5.518-.417,1.092-.809,2.194-1.185,3.3a10.351,10.351,0,0,0-.254,1.117s0,0,0,.007l-.009.043c-.312-.04-.709-.112-1.109-.135a1.151,1.151,0,0,0-.7.1,2.41,2.41,0,0,0-.449,2.5c.452.689,1.168,1.038.857,1.645l.019.036c-.114.293-.227.577-.337.851q-.079.235.329.573a.5.5,0,0,1-.2.026.492.492,0,0,0-.2.026,1.453,1.453,0,0,0,.144.26q.144.234.118.312-.081.157-.3.026l-.612,1.646q-.053.137.227.6,0-.028-.131.11a.849.849,0,0,0,.471.524.775.775,0,0,1-.052-.164,1.524,1.524,0,0,0,.367-.464,8.112,8.112,0,0,0,1.152.157l.34-.916a1.73,1.73,0,0,0-.419-.393,2.221,2.221,0,0,0,.479-.3c2.79,6.571,5.69,13.026,10.627,18.269a3.58,3.58,0,0,0-.219-3.781c.678-.336.489-.852.335-1.381" transform="translate(-171.237 -65.691)" fill="#221f1d"/>
      <path id="Path_18" data-name="Path 18" d="M713.639,81.472a38.935,38.935,0,0,0-1.116-4.311,13.156,13.156,0,0,0-6.193-7.639,1.988,1.988,0,0,0-.565-.144,2.844,2.844,0,0,1-.818-.191,11.371,11.371,0,0,0-6.613-1.8,5.87,5.87,0,0,0-1.224.333c.72,1.341,2.005,1.593,3.071,2.181.453.25.938.447,1.374.721,3.49,2.2,6.034,5.006,6.347,9.383.23,3.23-1.3,5.526-3.618,7.54a7.266,7.266,0,0,1-2.057-4.234,15.391,15.391,0,0,1,.264-3.657c.325-1.556.877-3.064,1.337-4.591a1.424,1.424,0,0,0-.638-1.915,4.8,4.8,0,0,1-.971-.727c-.645-.809-1.429-.68-2.313-.577-2.609.3-3.97,1.956-4.659,4.263a21.7,21.7,0,0,0-.894,4.386,11.9,11.9,0,0,0,1.245,6.813c2.239,4.131,7.116,7.056,12.045,4.937a9.026,9.026,0,0,1,1.044-.3v3.114l.136,0c.07-.953.106-1.911.228-2.857a1.654,1.654,0,0,1,.461-.988A12.523,12.523,0,0,0,713.6,84.07a6.721,6.721,0,0,0,.043-2.6" transform="translate(-610.056 -59.196)" fill="#221f1d"/>
      <path id="Path_19" data-name="Path 19" d="M25.449,92.828a9.154,9.154,0,0,0-4.863-3.372,19.287,19.287,0,0,0-11.624.7A28.544,28.544,0,0,0,.578,95.268c-.734.635-.745.9-.169,1.7A4.892,4.892,0,0,1,1.2,98.2c.585,1.814,1.8,2.292,3.379,1.262.132-.086.252-.189.376-.286l1.69-1.34c.492,1.215,1.023,2.287,1.365,3.415.853,2.818,1.566,5.68,2.446,8.489a25.12,25.12,0,0,0,1.657,3.828c.442.868,1.026.921,1.753.338.633-.508,1.228-1.072,1.905-1.512.64-.416.863-1.4,1.835-1.348.016,0,.036-.026.05-.043q.636-.739,1.271-1.479c.158-.183.314-.368.484-.539.5-.5,1.024-.982,1.5-1.5.379-.409.7-.872,1.061-1.3a12.483,12.483,0,0,0,1.212-1.4c.569-.923,1.038-1.907,1.6-2.966v6.133a3.1,3.1,0,0,0,.379-1.637,15.684,15.684,0,0,1,.593-7.344l.187.052c-.244,1.162-.1,1.918.5,2.355.013-.231.04-.428.033-.624-.058-1.71-.044-3.427-.216-5.125a5.44,5.44,0,0,0-.821-2.805m-2.893,4.2a26.963,26.963,0,0,1-4.027,8.859c-1.152,1.774-2.321,3.538-3.484,5.31-.309-2.771-.489-5.542-.956-8.263s-1.222-5.394-1.867-8.157A13.335,13.335,0,0,1,17.7,93.4a5.937,5.937,0,0,1,4.491,2,1.7,1.7,0,0,1,.364,1.627" transform="translate(0 -78.096)" fill="#221f1d"/>
      <path id="Path_20" data-name="Path 20" d="M321,70.792a14.468,14.468,0,0,0,4.522.527c2.65-.153,5.3-.259,8.027-.388-.053.182-.054.215-.065.219-1.385.508-2.77,1.017-4.157,1.517-.9.323-1.8.636-2.7.951-1.617.566-3.261,1.067-4.847,1.711-1.793.728-3.553,1.546-5.291,2.4-.947.465-1.817,1.087-2.887,1.738.733.746,1.4,1.422,2.066,2.106.253.261.618.492.237.942a1.229,1.229,0,0,0-.154.495,6.694,6.694,0,0,0,.827.2,1.1,1.1,0,0,0,.636-.053c.666-.407,1.278-.909,1.957-1.289,1.178-.66,2.37-1.3,3.6-1.864,1.2-.545,2.436-.994,3.671-1.448,1.17-.43,2.357-.815,3.539-1.216.8-.271,1.607-.516,2.4-.8a18.083,18.083,0,0,1,2.053-.809,9.9,9.9,0,0,0,3.618-1.848A4.1,4.1,0,0,0,339.3,69.37a4.326,4.326,0,0,0-2.794-2.513,17.219,17.219,0,0,0-5.937-.56,1.945,1.945,0,0,1-.642-.215c-.711.72-1.6.272-2.412.358l-.21-.637c.189-.247.354-.643.65-.82q2.561-1.529,5.177-2.964c1.217-.667,2.489-1.233,3.7-1.9a1.122,1.122,0,0,0,.29-1.86,9.992,9.992,0,0,0-1.278-1.387,1.605,1.605,0,0,0-1.149-.39,18.4,18.4,0,0,0-3.075.943,32.614,32.614,0,0,0-10.25,6.478,6.487,6.487,0,0,0-2.258,4.154A2.732,2.732,0,0,0,321,70.792" transform="translate(-275.555 -49.616)" fill="#221f1d"/>
      <path id="Path_21" data-name="Path 21" d="M664.482,371.432a.406.406,0,0,0-.2.049c-1.964.951-2.338,1.925-1.587,3.96a3.645,3.645,0,0,1,.152,1.238c0,.715-.055,1.43-.087,2.145l.186.089c.128-.148.356-.289.366-.445.04-.6.011-1.2.007-1.8,0-.522.011-1.033.711-1.2.011.2.022.375.028.548.04,1.106.064,2.213.123,3.318.037.692.2,1.383.176,2.07-.03.851-.255,1.7-.278,2.545a6.855,6.855,0,0,0,.309,1.545l.184-.045c0-1.505.013-3.011-.009-4.516-.006-.392-.186-.785-.172-1.174.049-1.358.138-2.715.235-4.071.023-.319.034-.79.229-.916.545-.353.361-.7.216-1.15-.222-.681-.374-1.384-.584-2.187" transform="translate(-581.969 -326.363)" fill="#221f1d"/>
      <path id="Path_22" data-name="Path 22" d="M493.528,11.216l-2.726.294a10.24,10.24,0,0,0-2.746.728,5.717,5.717,0,0,0-2.329,1.946,2.665,2.665,0,0,0,1.258,1.254,5.6,5.6,0,0,0,1.334.339q.106.018.855.106t.829.1q.08.014,1.109.3t1.108.3a7.86,7.86,0,0,0,3.079-.124q1.92-.469,3.866-.933a.714.714,0,0,1,.113.016l4.656,9.422a2.272,2.272,0,0,0,.362.117,1.5,1.5,0,0,1,.112.456,1.873,1.873,0,0,0,.625,1.282,6.618,6.618,0,0,0,1.68.863,10.444,10.444,0,0,0,1.364.481.335.335,0,0,0,.257-.065l.057-.331.057-.331a.13.13,0,0,0,.1-.024.209.209,0,0,1,.153-.015,1.777,1.777,0,0,1,.489.33l.261-1.511-4.157-13.994a.482.482,0,0,1,.057-.213,1.688,1.688,0,0,1,.783-.275,2.349,2.349,0,0,0,.68-.142,44.933,44.933,0,0,1,5.424-3.433c1.392-.688,2.211-1.13,3.621-1.815.476-.252.663-.463.7-.656a9.047,9.047,0,0,0,3.024-2.322l-.07-.207-3.35.9c.016-.019.031-.037.05-.056-4.41.877-5.672,1.448-12.691,3.422l-1.406-3.246a10.653,10.653,0,0,0-1.533-2.667A3.923,3.923,0,0,0,498.2.118a4.672,4.672,0,0,0-1.849-.046,9.637,9.637,0,0,0-2.458,1.269,1.369,1.369,0,0,0-.336.843,1.484,1.484,0,0,0,.1,1q1.465,2.9,2.257,4.485a4.234,4.234,0,0,1,.521,2.52,8.26,8.26,0,0,1-2.907,1.027" transform="translate(-426.793 0)" fill="#221f1d"/>
      <path id="Path_23" data-name="Path 23" d="M503.908,221.257c-.038-.008-.084.027-.127.038-.757.187-1.505.42-2.272.551q-4.126.709-8.262,1.358c-2.32.361-3.905-.792-5.033-2.656a3.572,3.572,0,0,1-.589-2.036,2.555,2.555,0,0,1,1.067-1.6,9.565,9.565,0,0,1,2.519-1.092,7.924,7.924,0,0,1,5.994.131,11.412,11.412,0,0,0,2.426.824,2.349,2.349,0,0,0,2.907-1.761.894.894,0,0,0-.486-1.174,29.386,29.386,0,0,1-6.36-4.866,7.8,7.8,0,0,0-2.887-1.939,17.548,17.548,0,0,1-2.093-.846c-.9-.449-1.627-.234-1.763.757a5.773,5.773,0,0,0,.277,2.158,8.294,8.294,0,0,0,.707,1.483c-3.574,1.2-6.959,2.545-7.931,6.75-.012-.079-.023-.158-.035-.237v0s-.35.477.387,3.052l.018.063c.191.394.389.842.619,1.272a9.8,9.8,0,0,0,2.927,3.495,12.782,12.782,0,0,0,6.468,2.149,20.41,20.41,0,0,0,7.3-1.153,14.675,14.675,0,0,0,5.743-3.451,6.24,6.24,0,0,0,.623-.79c-.779-.178-1.459-.334-2.14-.485" transform="translate(-423.415 -180.978)" fill="#221f1d"/>
      <path id="Path_24" data-name="Path 24" d="M368.074,256.537c-1.29-2.346-1.056-2.89-1.056-2.89v0c-.443-1.127-.862-2.256-1.285-3.382l.017-.038q-.208-.554-.419-1.106c-1.427-3.73-2.873-7.452-4.3-11.184-.17-.445-.406-.67-.893-.6-.222.034-.451.019-.674.047-1.2.15-1.558.679-1.282,1.845.129.546.23,1.1.322,1.653.163.989,0,2.112,1.2,2.689l-.635.432,1.164,5.6-.22.081c-.267-.161-.537-.316-.8-.484a40.614,40.614,0,0,1-6.914-5.831,10.779,10.779,0,0,1-.8-1.016c-.632.077-1.344.172-2.058.248a3.7,3.7,0,0,0-2.5,2.035,1.17,1.17,0,0,0,.127.713c.181.349.5.633.652.99,1.23,2.869,1.37,5.937,1.6,8.987.147,1.976.241,3.956.438,5.926a2.028,2.028,0,0,0,2.282,1.732c.678-.056,1.359-.073,2.011-.107a13.529,13.529,0,0,0,.781-1.422,2.679,2.679,0,0,0,.235-1.207c-.209-2.266-.48-4.527-.7-6.792-.055-.561-.008-1.131-.008-1.7l.21-.065c2.624,2.024,5.244,4.054,7.878,6.065,0,0,.319.228.32.226.281.223.3.274.552.464a2.206,2.206,0,0,0,1.087.4c.69.063,1.389.018,1.851.018l1.843-2.272,0,0-.032-.057" transform="translate(-304.842 -208.529)" fill="#221f1d"/>
      <path id="Path_25" data-name="Path 25" d="M602.054,110.691a.257.257,0,0,0-.128.031c-1.239.6-1.475,1.214-1,2.5a2.3,2.3,0,0,1,.1.781c0,.451-.035.9-.055,1.353l.117.056c.081-.093.224-.182.231-.281.025-.378.007-.758,0-1.138,0-.329.007-.652.448-.757.007.128.014.237.018.346.025.7.04,1.4.078,2.093.023.436.126.873.111,1.306-.019.537-.161,1.069-.175,1.606a4.326,4.326,0,0,0,.195.975l.116-.028c0-.95.008-1.9-.006-2.849,0-.247-.118-.5-.109-.74.031-.857.087-1.713.148-2.568.014-.2.022-.5.145-.578.344-.223.228-.444.136-.725-.14-.429-.236-.873-.368-1.38" transform="translate(-527.813 -97.259)" fill="#221f1d"/>
      <path id="Path_26" data-name="Path 26" d="M108.4,273.04a1.375,1.375,0,0,1-.807.914c-.033-.592.4-.548.807-.914" transform="translate(-94.537 -239.912)" fill="#221f1d" fill-rule="evenodd"/>
      <path id="Path_27" data-name="Path 27" d="M714.234,108.3c.135-.361.62-.54.89-.84-.024.157-.07.254.12.032-.172.4-.68.847-1.01.809" transform="translate(-627.575 -94.423)" fill="#221f1d" fill-rule="evenodd"/>
      <path id="Path_28" data-name="Path 28" d="M2.623,121.969c.482-.457.976-.723,1.455-1.229-.332.35-.969,1.251-1.455,1.229" transform="translate(-2.305 -106.09)" fill="#221f1d" fill-rule="evenodd"/>
      <path id="Path_29" data-name="Path 29" d="M366.832,87.024c.2-.1.326.336.071.506-.285-.152-.1-.334-.071-.506" transform="translate(-322.249 -76.451)" fill="#221f1d" fill-rule="evenodd"/>
      <path id="Path_30" data-name="Path 30" d="M255.23,105.616c.321.39.065,1.012-.272,1.313a1.358,1.358,0,0,1,.272-1.313" transform="translate(-223.967 -92.801)" fill="#221f1d" fill-rule="evenodd"/>
      <path id="Path_31" data-name="Path 31" d="M221.067,144.4c.126-.078.249-.2.382-.181.3.23-.234.512-.149.755-.161-.031-.114-.41-.232-.575" transform="translate(-194.245 -126.718)" fill="#221f1d" fill-rule="evenodd"/>
      <path id="Path_32" data-name="Path 32" d="M229.97,71.421a4.95,4.95,0,0,1,2.148,1.083,6,6,0,0,1-2.148-1.083M232,72.473c-.2-.117-.414-.349-.608-.316a1.421,1.421,0,0,0,.608.316" transform="translate(-202.067 -62.755)" fill="#221f1d" fill-rule="evenodd"/>
    </g>
  </g>
</svg>
