<svg xmlns="http://www.w3.org/2000/svg" width="15.302" height="13.771" viewBox="0 0 15.302 13.771">
  <g id="OpenSea-Full-Logo_dark_" data-name="OpenSea-Full-Logo (dark)" transform="translate(-21 -20)">
    <path id="Path_28" data-name="Path 28" d="M24.614,35.973l.054-.084L27.9,30.838a.11.11,0,0,1,.194.014,6.879,6.879,0,0,1,.787,3.648,5.7,5.7,0,0,1-.635,1.389c-.037.07-.078.139-.121.205a.11.11,0,0,1-.092.048h-3.32A.11.11,0,0,1,24.614,35.973Z" transform="translate(-2.704 -8.11)" fill="#fff"/>
    <path id="Path_29" data-name="Path 29" d="M36.3,28.8v.8a.115.115,0,0,1-.069.1,3.975,3.975,0,0,0-1.461.995c-.908,1.264-1.6,3.07-3.152,3.07H25.151A4.157,4.157,0,0,1,21,29.607v-.074a.111.111,0,0,1,.111-.111h3.606a.123.123,0,0,1,.117.136,1.231,1.231,0,0,0,.129.692,1.269,1.269,0,0,0,1.137.706h1.785V29.563H26.121a.114.114,0,0,1-.092-.179c.019-.029.041-.06.064-.094.167-.237.405-.606.643-1.025a8.029,8.029,0,0,0,.445-.889c.026-.055.046-.111.066-.166.034-.1.07-.187.1-.278s.046-.157.066-.232a3.592,3.592,0,0,0,.085-.814c0-.111-.005-.227-.015-.338s-.02-.242-.036-.363-.029-.213-.05-.324c-.025-.162-.061-.323-.1-.485l-.014-.061c-.031-.111-.056-.217-.092-.328-.1-.348-.217-.687-.339-1-.045-.126-.1-.247-.147-.369-.075-.182-.152-.348-.222-.5-.036-.071-.066-.136-.1-.2s-.07-.15-.106-.222c-.025-.055-.055-.106-.075-.157l-.218-.4a.071.071,0,0,1,.08-.1l1.364.37h.009l.18.05.2.056.073.02v-.811a.705.705,0,0,1,.7-.709.692.692,0,0,1,.5.208.713.713,0,0,1,.205.5v1.2l.145.041a.116.116,0,0,1,.033.017l.152.115c.051.041.106.091.172.142.131.106.288.242.46.4.046.04.091.08.131.121.222.207.471.449.708.717.066.075.131.152.2.232s.136.162.2.242c.08.107.167.218.242.334.036.055.076.111.111.166.1.147.182.3.264.45.034.07.07.147.1.222a3.244,3.244,0,0,1,.208.616.769.769,0,0,1,.029.136v.01a1.167,1.167,0,0,1,.025.193,2.06,2.06,0,0,1-.036.636,2.318,2.318,0,0,1-.075.267c-.031.087-.061.177-.1.263a3.561,3.561,0,0,1-.274.52c-.034.061-.075.126-.116.187s-.091.126-.131.186c-.056.076-.116.157-.177.228a2.423,2.423,0,0,1-.172.217c-.085.1-.167.2-.252.288-.051.06-.106.121-.162.176s-.111.116-.162.167c-.085.085-.157.152-.217.207l-.14.129a.114.114,0,0,1-.075.028H29.288v1.394h1.367a1.279,1.279,0,0,0,.831-.307,9.971,9.971,0,0,0,.845-.831.106.106,0,0,1,.052-.032L36.16,28.7A.111.111,0,0,1,36.3,28.8Z" fill="#fff"/>
  </g>
</svg>
