<svg xmlns="http://www.w3.org/2000/svg" width="26.698" height="26.696" viewBox="0 0 26.698 26.696">
  <g id="Group_1256" data-name="Group 1256" transform="translate(-681.942 -13.942)">
    <g id="Group_1257" data-name="Group 1257" transform="translate(47.714 -44.286)">
      <path id="Subtraction_14" data-name="Subtraction 14" d="M12.348,24.7v0l-1.757-3.044a9.561,9.561,0,0,0,3.516,0L12.349,24.7Zm6.175-1.655h0l-3.043-1.756a9.416,9.416,0,0,0,3.044-1.761v3.518Zm-12.349,0V19.524a9.419,9.419,0,0,0,3.045,1.761L6.176,23.042Zm16.869-4.519H19.527a9.456,9.456,0,0,0,1.759-3.045l1.757,3.044Zm-17.871,0H1.655l1.757-3.044a9.417,9.417,0,0,0,1.759,3.042Zm16.48-4.416v0a9.563,9.563,0,0,0,0-3.514L24.7,12.348l-3.043,1.757Zm-18.607,0h0L0,12.348l3.045-1.757a9.564,9.564,0,0,0,0,3.514ZM21.286,9.218v0a9.418,9.418,0,0,0-1.76-3.042h3.517L21.287,9.216Zm-17.874,0v0L1.655,6.174H5.172a9.416,9.416,0,0,0-1.76,3.042ZM6.174,5.172V1.655L9.218,3.411A9.418,9.418,0,0,0,6.176,5.17Zm12.349,0h0A9.419,9.419,0,0,0,15.48,3.411l3.043-1.756V5.172ZM14.107,3.046h0a9.4,9.4,0,0,0-1.756-.164,9.552,9.552,0,0,0-1.756.162L12.348,0l1.758,3.044Z" transform="translate(635.229 59.229)" fill="#fff" stroke="rgba(0,0,0,0)" stroke-miterlimit="10" stroke-width="1"/>
      <circle id="Ellipse_7" data-name="Ellipse 7" cx="8.527" cy="8.527" r="8.527" transform="translate(639.051 63.051)" fill="#fff"/>
    </g>
  </g>
</svg>
