<svg xmlns="http://www.w3.org/2000/svg" width="75.171" height="31.251" viewBox="0 0 75.171 31.251">
  <g id="Group_1002" data-name="Group 1002" transform="translate(440.171 -682) rotate(90)">
    <g id="Path_1845" data-name="Path 1845" transform="translate(682 365)" fill="#ffa200">
      <path d="M 29.750732421875 73.67068481445312 L 1.499999523162842 73.67068481445312 L 1.499999523162842 3.792248487472534 L 29.750732421875 1.619780421257019 L 29.750732421875 73.67068481445312 Z" stroke="none"/>
      <path d="M 28.25072860717773 3.239555358886719 L 3.000003814697266 5.181320190429688 L 3.000003814697266 72.17067718505859 L 28.25072860717773 72.17067718505859 L 28.25072860717773 3.239555358886719 M 31.25072860717773 -7.62939453125e-06 L 31.25072860717773 75.17067718505859 L 3.814697265625e-06 75.17067718505859 L 3.814697265625e-06 2.403152465820312 L 31.25072860717773 -7.62939453125e-06 Z" stroke="none" fill="#000"/>
    </g>
    <path id="Path_1844" data-name="Path 1844" d="M2086.114,555.89l27.673-14.269v20.322l-17.728,4.324h-9.945Z" transform="translate(-1402.328 -127.954)"/>
    <path id="Path_1846" data-name="Path 1846" d="M2086.114,537.863l27.673-11.242V506.3l-27.673,10.377Z" transform="translate(-1402.328 -122.465)"/>
    <path id="Path_1847" data-name="Path 1847" d="M2086.114,500.09l25.078-14.269-25.078,3.027Z" transform="translate(-1402.328 -119.283)"/>
  </g>
</svg>
